<?xml version="1.0" standalone="no"?>
<!DOCTYPE svg PUBLIC "-//W3C//DTD SVG 20010904//EN"
 "http://www.w3.org/TR/2001/REC-SVG-20010904/DTD/svg10.dtd">
<svg version="1.0" xmlns="http://www.w3.org/2000/svg"
 width="225.000000pt" height="225.000000pt" viewBox="0 0 225.000000 225.000000"
 preserveAspectRatio="xMidYMid meet">

<g transform="translate(0.000000,225.000000) scale(0.100000,-0.100000)"
fill="#000000" stroke="none">
<path d="M983 1945 c-189 -34 -331 -111 -465 -253 -250 -265 -296 -659 -115
-982 57 -103 196 -242 302 -304 186 -108 413 -141 622 -91 101 25 257 104 337
172 125 105 233 273 270 419 20 78 20 81 -4 87 -14 4 -19 12 -17 35 1 19 6 28
15 25 14 -6 16 -23 2 -23 -5 0 -10 -7 -10 -15 0 -8 6 -15 13 -15 10 0 14 13
14 40 0 34 -3 40 -21 40 -16 0 -18 2 -7 9 8 5 20 7 28 4 10 -4 13 10 13 63 -1
233 -130 484 -324 630 -188 141 -428 200 -653 159z m82 -65 c3 -5 1 -10 -4
-10 -6 0 -11 5 -11 10 0 6 2 10 4 10 3 0 8 -4 11 -10z m345 -180 c0 -23 -35
-62 -70 -80 -21 -11 -40 -26 -43 -35 -4 -8 -14 -15 -24 -15 -15 0 -15 2 3 15
52 39 -57 -7 -151 -65 -40 -25 -71 -38 -73 -31 -3 8 -9 8 -25 0 -58 -30 10 18
99 70 55 31 100 64 100 72 1 8 2 20 3 27 0 7 9 12 19 11 9 -2 33 7 52 19 36
23 110 30 110 12z m-721 -23 c-2 -1 -15 -11 -29 -22 l-25 -20 19 23 c11 12 24
22 29 22 6 0 8 -1 6 -3z m80 -61 c-1 -17 -2 -16 -9 6 -4 14 -11 32 -15 40 -3
7 1 4 9 -6 9 -11 16 -29 15 -40z m-34 34 c3 -6 -1 -7 -9 -4 -18 7 -21 14 -7
14 6 0 13 -4 16 -10z m-21 -87 c28 4 38 1 57 -21 l24 -27 -25 21 c-18 16 -34
20 -60 17 -28 -4 -40 0 -55 19 l-20 23 22 -19 c16 -14 32 -17 57 -13z m505
-211 c36 -26 50 -73 50 -170 1 -136 -32 -182 -131 -182 -98 0 -132 47 -132
185 0 73 3 97 20 125 39 68 131 88 193 42z m-379 10 c0 -5 -18 -53 -41 -108
-22 -54 -45 -109 -50 -121 -8 -22 -7 -23 56 -23 l65 0 0 61 c0 57 1 60 23 57
19 -3 22 -10 25 -60 3 -50 6 -58 22 -58 13 0 20 -7 20 -20 0 -13 -7 -20 -20
-20 -16 0 -20 -7 -20 -35 0 -31 -3 -35 -25 -35 -22 0 -25 4 -25 35 l0 35 -90
0 c-108 0 -107 -4 -51 131 22 52 46 111 55 132 10 26 21 37 35 37 12 0 21 -4
21 -8z m611 -39 c-11 -27 -33 -81 -50 -122 -17 -41 -31 -78 -31 -82 0 -5 27
-9 60 -9 l60 0 0 60 c0 57 1 60 25 60 24 0 25 -3 25 -60 0 -58 1 -60 26 -60
33 0 30 -33 -4 -38 -18 -3 -22 -10 -22 -38 0 -30 -3 -34 -25 -34 -22 0 -25 4
-25 35 l0 35 -85 0 c-84 0 -85 0 -85 25 0 13 18 71 41 127 23 57 45 113 50
126 6 15 17 22 34 22 l25 0 -19 -47z m245 -24 c8 -14 -11 -33 -25 -25 -11 7
-4 36 9 36 5 0 12 -5 16 -11z m-1080 -70 c10 -17 -13 -36 -27 -22 -12 12 -4
33 11 33 5 0 12 -5 16 -11z m128 -324 c19 -19 10 -45 -14 -45 -10 0 -21 -8
-23 -17 -3 -10 -5 3 -6 30 -1 51 13 61 43 32z m60 7 c2 -4 8 -25 12 -47 6 -37
6 -39 -9 -26 -14 11 -20 11 -32 1 -13 -10 -15 -9 -15 8 0 46 29 88 44 64z m76
-1 c0 -5 -9 -11 -21 -14 -22 -6 -23 -37 -1 -45 7 -2 10 2 6 12 -4 11 -1 16 10
16 18 0 22 -35 6 -45 -32 -20 -69 30 -49 67 10 18 49 26 49 9z m70 -1 c0 -5
-7 -10 -15 -10 -18 0 -20 -20 -2 -21 10 0 10 -2 0 -6 -18 -7 -16 -23 3 -23 8
0 12 -4 9 -10 -3 -5 -15 -10 -26 -10 -16 0 -19 7 -19 45 0 41 2 45 25 45 14 0
25 -4 25 -10z m71 -21 c7 -23 7 -22 8 5 1 22 4 27 12 19 13 -13 8 -78 -6 -77
-5 1 -16 12 -22 25 l-13 24 0 -28 c0 -16 -4 -26 -10 -22 -11 7 -14 68 -3 79
12 11 27 0 34 -25z m99 11 c21 -39 -15 -85 -46 -59 -27 22 -11 79 23 79 7 0
17 -9 23 -20z m65 10 c3 -5 1 -10 -4 -10 -6 0 -11 -13 -11 -30 0 -16 -4 -30
-10 -30 -5 0 -10 14 -10 30 0 17 -4 30 -10 30 -5 0 -10 5 -10 10 0 6 11 10 24
10 14 0 28 -4 31 -10z m85 0 c0 -5 -7 -10 -15 -10 -8 0 -15 -4 -15 -10 0 -5 7
-10 15 -10 8 0 15 -4 15 -10 0 -5 -7 -10 -15 -10 -8 0 -15 -4 -15 -10 0 -5 -4
-10 -10 -10 -11 0 -14 63 -3 73 10 11 43 8 43 -3z m54 4 c21 -8 22 -70 1 -78
-28 -10 -45 5 -45 39 0 18 6 36 13 38 6 3 13 6 14 6 1 1 8 -2 17 -5z m59 -61
c7 2 15 19 18 38 7 38 10 37 13 -4 1 -16 -4 -36 -11 -45 -26 -35 -67 23 -47
66 6 12 9 7 12 -21 2 -24 8 -37 15 -34z m73 52 c6 -14 8 -13 20 2 12 16 13 13
14 -29 0 -46 -14 -64 -26 -33 -6 14 -8 13 -20 -2 -12 -16 -13 -13 -14 30 0 45
14 63 26 32z m95 5 c23 -13 25 -43 3 -64 -29 -30 -44 -20 -44 29 0 46 7 53 41
35z m-1091 -150 c0 -5 -2 -10 -4 -10 -3 0 -8 5 -11 10 -3 6 -1 10 4 10 6 0 11
-4 11 -10z m884 -18 c2 -4 0 -14 -5 -22 -8 -13 -10 -13 -18 0 -10 15 -6 30 9
30 5 0 11 -4 14 -8z m-651 -39 c-35 -4 -40 -11 -23 -31 5 -7 3 -6 -6 2 -23 20
-9 36 29 34 l32 -1 -32 -4z m76 -47 c-2 -2 -13 8 -23 22 l-19 27 24 -22 c12
-12 21 -24 18 -27z m-111 -11 c-3 -3 -9 2 -12 12 -6 14 -5 15 5 6 7 -7 10 -15
7 -18z m67 15 c3 -6 -1 -7 -9 -4 -18 7 -21 14 -7 14 6 0 13 -4 16 -10z m923
-24 c-2 -13 -10 -21 -23 -21 -23 0 -33 34 -14 45 20 13 40 -1 37 -24z m-1031
2 c-3 -8 -6 -5 -6 6 -1 11 2 17 5 13 3 -3 4 -12 1 -19z m21 -26 c15 12 16 11
3 -4 -14 -19 -32 -15 -30 5 0 8 2 8 6 -1 4 -10 8 -10 21 0z m124 -24 c-9 -9
-15 -9 -24 1 -11 10 -10 11 5 6 10 -5 17 -2 17 6 0 7 3 9 7 6 4 -4 1 -13 -5
-19z m-103 -4 c-10 -13 -10 -17 2 -25 8 -5 9 -9 4 -9 -6 0 -16 5 -23 12 -9 9
-7 14 6 24 23 18 27 17 11 -2z m75 -25 c-3 -5 -11 -9 -17 -8 -8 0 -8 2 1 6 10
4 10 8 0 21 -12 15 -11 16 4 3 10 -7 15 -17 12 -22z"/>
<path d="M1238 1643 c7 -3 16 -2 19 1 4 3 -2 6 -13 5 -11 0 -14 -3 -6 -6z"/>
<path d="M1112 1333 c-32 -6 -50 -39 -58 -105 -9 -74 3 -145 27 -169 29 -29
92 -26 118 7 26 33 36 117 21 189 -10 51 -15 58 -46 71 -18 8 -35 13 -36 13
-2 -1 -13 -4 -26 -6z"/>
<path d="M712 891 c2 -7 7 -12 11 -12 12 1 9 15 -3 20 -7 2 -11 -2 -8 -8z"/>
<path d="M1080 875 c0 -17 5 -25 13 -22 6 2 12 12 12 22 0 10 -6 20 -12 23 -8
2 -13 -6 -13 -23z"/>
<path d="M1300 875 c0 -14 5 -25 10 -25 6 0 10 11 10 25 0 14 -4 25 -10 25 -5
0 -10 -11 -10 -25z"/>
<path d="M1520 875 c0 -17 5 -25 13 -22 6 2 12 12 12 22 0 10 -6 20 -12 23 -8
2 -13 -6 -13 -23z"/>
</g>
</svg>
